<?xml version="1.0" encoding="utf-8"?>
<!-- Generator: Adobe Illustrator 20.0.0, SVG Export Plug-In . SVG Version: 6.00 Build 0)  -->
<svg version="1.1" id="Layer_1" xmlns="http://www.w3.org/2000/svg" xmlns:xlink="http://www.w3.org/1999/xlink" x="0px" y="0px"
	 viewBox="0 0 792 612" style="enable-background:new 0 0 792 612;" xml:space="preserve">
<style type="text/css">
	.st0{fill:#4CB6AC;}
	.st1{fill:#009789;}
	.st2{fill:#007A6C;}
</style>
<g id="A">
	<g>
		
			<image style="overflow:visible;opacity:0.67;" width="614" height="252" xlink:href="76BBC133930082A2.png"  transform="matrix(0.24 0 0 0.24 326.1915 298.165)">
		</image>
		<g>
			<path class="st0" d="M356.1,300.3c2.7,0.7,94.3,0,94.3,0l21,56h-143l20.9-56H356.1z"/>
		</g>
	</g>
	<g>
		
			<image style="overflow:visible;opacity:0.67;" width="808" height="1669" xlink:href="76BBC133930082A6.png"  transform="matrix(0.24 0 0 0.24 207.9894 89.671)">
		</image>
		<g>
			<polyline class="st1" points="372.2,91.8 210.1,487.8 279.4,487.8 399.6,165 			"/>
		</g>
	</g>
	<g>
		
			<image style="overflow:visible;opacity:0.67;" width="928" height="1667" xlink:href="76BBC133930082A1.png"  transform="matrix(0.24 0 0 0.24 370.0377 89.671)">
		</image>
		<g>
			<polygon class="st2" points="372.2,91.8 520.5,487.5 590.4,487.5 431.4,91.8 			"/>
		</g>
	</g>
</g>
<g>
	
		<image style="overflow:visible;opacity:0.83;" width="765" height="1921" xlink:href="76BBC133930082A3.png"  transform="matrix(0.24 0 0 0.24 21.6124 85.0172)">
	</image>
	<g>
		<g>
			<path class="st1" d="M89.1,315.4v-1.6c0,0,58.2-0.6,58.2-67.4S133.8,136,202.9,133.6V87.3c0,0-111.3-6.3-110.7,73
				s-2.2,98.5-2.2,98.5s-7,25.7-39,30c0,0-16.8,2.8-27.3,2.7V315L89.1,315.4z"/>
			<path class="st2" d="M89.1,315.4v1.9c0,0,58.2,0.6,58.2,67.4S133.8,495,202.9,497.3v46.3c0,0-111.3,6.3-110.7-73
				s-2.2-98.5-2.2-98.5s-7-25.7-39-30c0,0-16.8-2.8-27.3-2.7V315L89.1,315.4z"/>
		</g>
	</g>
</g>
<g>
	
		<image style="overflow:visible;opacity:0.67;" width="765" height="1921" xlink:href="76BBC133930082A0.png"  transform="matrix(0.24 0 0 0.24 595.4959 85.3922)">
	</image>
	<g>
		<g>
			<path class="st1" d="M711.5,315.7v-1.6c0,0-58.2-0.6-58.2-67.4s13.5-110.3-55.7-112.7V87.7c0,0,111.3-6.3,110.7,73
				s2.2,98.5,2.2,98.5s7,25.7,39,30c0,0,16.8,2.8,27.3,2.7v23.5L711.5,315.7z"/>
			<path class="st2" d="M711.5,315.7v1.9c0,0-58.2,0.6-58.2,67.4s13.5,110.3-55.7,112.7v46.3c0,0,111.3,6.3,110.7-73
				s2.2-98.5,2.2-98.5s7-25.7,39-30c0,0,16.8-2.8,27.3-2.7v-24.5L711.5,315.7z"/>
		</g>
	</g>
</g>
</svg>
